<?xml version="1.0" encoding="UTF-8" standalone="no"?>
<!-- Created with Inkscape (http://www.inkscape.org/) -->

<svg
   xmlns:dc="http://purl.org/dc/elements/1.1/"
   xmlns:cc="http://creativecommons.org/ns#"
   xmlns:rdf="http://www.w3.org/1999/02/22-rdf-syntax-ns#"
   xmlns:svg="http://www.w3.org/2000/svg"
   xmlns="http://www.w3.org/2000/svg"
   xmlns:sodipodi="http://sodipodi.sourceforge.net/DTD/sodipodi-0.dtd"
   xmlns:inkscape="http://www.inkscape.org/namespaces/inkscape"
   width="800"
   height="256"
   viewBox="0 0 211.66666 67.733331"
   version="1.1"
   id="svg5458"
   inkscape:version="0.92.4 (5da689c313, 2019-01-14)"
   sodipodi:docname="postgresql-logo.svg">
  <defs
     id="defs5452">













	</defs>
  <sodipodi:namedview
     id="base"
     pagecolor="#ffffff"
     bordercolor="#666666"
     borderopacity="1.0"
     inkscape:pageopacity="0.0"
     inkscape:pageshadow="2"
     inkscape:zoom="0.44808749"
     inkscape:cx="888.70544"
     inkscape:cy="-95.884147"
     inkscape:document-units="mm"
     inkscape:current-layer="layer1"
     showgrid="false"
     units="px"
     inkscape:window-width="1920"
     inkscape:window-height="1057"
     inkscape:window-x="-8"
     inkscape:window-y="-8"
     inkscape:window-maximized="1" />
  <metadata
     id="metadata5455">
    <rdf:RDF>
      <cc:Work
         rdf:about="">
        <dc:format>image/svg+xml</dc:format>
        <dc:type
           rdf:resource="http://purl.org/dc/dcmitype/StillImage" />
        <dc:title></dc:title>
      </cc:Work>
    </rdf:RDF>
  </metadata>
  <g
     inkscape:label="Camada 1"
     inkscape:groupmode="layer"
     id="layer1"
     transform="translate(0,-229.26667)">
    <g
       id="g6439"
       transform="matrix(0.96059601,0,0,0.96059601,-19.504669,54.083577)">
      <g
         id="g6413">
        <path
           id="path6274"
           d="m 67.52548,231.07498 c 0.374783,-3.12221 0.262467,-3.58008 2.588022,-3.07432 l 0.590418,0.0519 c 1.788186,0.0814 4.127368,-0.2876 5.501614,-0.92604 2.958306,-1.37266 4.712493,-3.66448 1.795462,-3.06229 -6.653874,1.37266 -7.111339,-0.8804 -7.111339,-0.8804 7.026143,-10.42498 9.963283,-23.65851 7.428045,-26.8978 -6.914885,-8.83563 -18.884371,-4.65746 -19.084661,-4.54899 l -0.06376,0.0118 c -1.314715,-0.27279 -2.786063,-0.43577 -4.438915,-0.46249 -3.011091,-0.0495 -5.2959,0.78938 -7.029053,2.10396 0,0 -21.352934,-8.79713 -20.359556,11.06329 0.21127,4.22487 6.055916,31.96895 13.026761,23.58893 2.547805,-3.06427 5.010018,-5.6552 5.010018,-5.6552 1.222639,0.81227 2.686447,1.2266 4.221692,1.07778 l 0.118665,-0.10121 c -0.03717,0.38047 -0.02077,0.75261 0.04749,1.19314 -1.795463,2.00647 -1.267884,2.35876 -4.858147,3.09774 -3.632333,0.74864 -1.498336,2.08148 -0.105437,2.4298 1.6891,0.42241 5.596599,1.02077 8.237538,-2.67546 l -0.105172,0.42174 c 0.704453,0.56357 0.656828,4.05064 0.756709,6.54209 0.100012,2.49158 0.266832,4.81661 0.7747,6.18741 0.507867,1.37055 1.107149,4.90141 5.825596,3.89017 3.943482,-0.84508 6.958541,-2.06137 7.233311,-13.37561"
           style="clip-rule:nonzero;fill:#000000;fill-rule:nonzero;stroke:#000000;stroke-width:4.94708681;stroke-linecap:butt;stroke-linejoin:miter;stroke-miterlimit:4"
           inkscape:connector-curvature="0" />
        <path
           id="path6276"
           d="m 78.001658,224.06392 c -6.654536,1.37266 -7.112001,-0.8804 -7.112001,-0.8804 7.026143,-10.42564 9.963283,-23.65944 7.428575,-26.89834 -6.914886,-8.8351 -18.884901,-4.65666 -19.084661,-4.54819 l -0.06429,0.0115 c -1.314715,-0.27291 -2.786063,-0.4355 -4.439709,-0.46249 -3.01109,-0.0493 -5.295106,0.78939 -7.028259,2.1037 0,0 -21.353331,-8.79673 -20.360217,11.06356 0.211269,4.22513 6.055783,31.96921 13.026893,23.58919 2.547937,-3.06427 5.009753,-5.6552 5.009753,-5.6552 1.222772,0.81227 2.686579,1.2266 4.221163,1.07778 l 0.119194,-0.10121 c -0.03704,0.38047 -0.02011,0.75261 0.04776,1.19314 -1.79586,2.00647 -1.268148,2.35876 -4.858147,3.09774 -3.632597,0.74864 -1.4986,2.08148 -0.105304,2.4298 1.6891,0.42241 5.596863,1.02077 8.237273,-2.67546 l -0.105305,0.42174 c 0.70366,0.56357 1.197769,3.66594 1.114955,6.47819 -0.08282,2.81239 -0.138113,4.74319 0.416322,6.25131 0.554434,1.50813 1.107016,4.90141 5.826389,3.89017 3.943483,-0.84508 5.986992,-3.03503 6.271287,-6.688 0.201745,-2.59702 0.658283,-2.21311 0.687123,-4.53496 l 0.366183,-1.09921 c 0.422275,-3.52042 0.06707,-4.65614 2.496609,-4.1279 l 0.590417,0.0519 c 1.788187,0.0814 4.128559,-0.2876 5.502143,-0.92604 2.957777,-1.37266 4.711965,-3.66448 1.795595,-3.06229 z"
           style="clip-rule:nonzero;fill:#336791;fill-rule:nonzero;stroke:none;stroke-width:1.6490289;stroke-linecap:round;stroke-linejoin:round;stroke-miterlimit:4"
           inkscape:connector-curvature="0" />
        <path
           style="clip-rule:nonzero;fill:none;fill-rule:nonzero;stroke:#ffffff;stroke-width:1.6490289;stroke-linecap:round;stroke-linejoin:round;stroke-miterlimit:4"
           id="path6278"
           d="m 53.325425,226.0819 c -0.183224,6.55055 0.04604,13.14675 0.68699,14.74986 0.64135,1.60311 2.013876,4.72122 6.733646,3.71012 3.943086,-0.84535 5.377789,-2.48127 6.000354,-6.09217 0.458522,-2.65668 1.342495,-10.03485 1.455869,-11.54655"
           inkscape:connector-curvature="0" />
        <path
           style="clip-rule:nonzero;fill:none;fill-rule:nonzero;stroke:#ffffff;stroke-width:1.6490289;stroke-linecap:round;stroke-linejoin:round;stroke-miterlimit:4"
           id="path6280"
           d="m 47.668368,193.2434 c 0,0 -21.367883,-8.73337 -20.374504,11.12692 0.211269,4.22513 6.05618,31.97013 13.027157,23.58972 2.547409,-3.06467 4.851268,-5.46827 4.851268,-5.46827"
           inkscape:connector-curvature="0" />
        <path
           style="clip-rule:nonzero;fill:none;fill-rule:nonzero;stroke:#ffffff;stroke-width:1.6490289;stroke-linecap:round;stroke-linejoin:round;stroke-miterlimit:4"
           id="path6282"
           d="m 59.210155,191.64942 c -0.739643,0.23191 11.886142,-4.61553 19.06151,4.55308 2.534576,3.23903 -0.402564,16.47283 -7.428574,26.89873"
           inkscape:connector-curvature="0" />
        <path
           id="path6284"
           d="m 70.842958,223.10123 c 0,0 0.457862,2.25372 7.11253,0.88014 2.915708,-0.60219 1.160991,1.68989 -1.796124,3.06321 -2.426891,1.12633 -7.867915,1.41499 -7.956815,-0.14142 -0.228732,-4.01571 2.863718,-2.79572 2.640542,-3.80193 -0.201745,-0.90619 -1.584722,-1.79559 -2.499519,-4.01346 -0.798645,-1.93583 -10.953221,-16.78107 2.816093,-14.57629 0.504428,-0.10438 -3.59119,-13.09714 -16.477325,-13.30841 -12.883224,-0.21127 -12.460552,15.84351 -12.460552,15.84351"
           style="clip-rule:nonzero;fill:none;fill-rule:nonzero;stroke:#ffffff;stroke-width:1.6490289;stroke-linecap:round;stroke-linejoin:bevel;stroke-miterlimit:4"
           inkscape:connector-curvature="0" />
        <path
           style="clip-rule:nonzero;fill:none;fill-rule:nonzero;stroke:#ffffff;stroke-width:1.6490289;stroke-linecap:round;stroke-linejoin:round;stroke-miterlimit:4"
           id="path6286"
           d="m 49.718889,224.47455 c -1.796124,2.00634 -1.267883,2.35863 -4.858147,3.09788 -3.632597,0.74877 -1.498335,2.08134 -0.105436,2.42953 1.6891,0.42268 5.596863,1.02103 8.237273,-2.67612 0.804069,-1.12567 -0.0048,-2.9218 -1.109266,-3.37966 -0.533664,-0.22106 -1.247246,-0.49808 -2.164424,0.52837 z"
           inkscape:connector-curvature="0" />
        <path
           style="clip-rule:nonzero;fill:none;fill-rule:nonzero;stroke:#ffffff;stroke-width:1.6490289;stroke-linecap:round;stroke-linejoin:round;stroke-miterlimit:4"
           id="path6288"
           d="m 49.601282,224.4395 c -0.180975,-1.17965 0.387614,-2.5834 0.99695,-4.22566 0.915723,-2.46407 3.028553,-4.92853 1.338395,-12.74485 -1.259814,-5.82467 -9.70968,-1.21219 -9.714971,-0.42241 -0.0052,0.78952 0.38219,4.00315 -0.141156,7.74541 -0.682889,4.88329 3.107267,9.0133 7.471702,8.59076"
           inkscape:connector-curvature="0" />
        <path
           id="path6290"
           d="m 47.590713,206.92818 c -0.0381,0.26974 0.493845,0.98954 1.18745,1.08572 0.692415,0.0966 1.285081,-0.46593 1.322652,-0.73541 0.03757,-0.26974 -0.493712,-0.56687 -1.187582,-0.66344 -0.692812,-0.0967 -1.285743,0.044 -1.322388,0.31313 z"
           style="clip-rule:nonzero;fill:#ffffff;fill-rule:nonzero;stroke:#ffffff;stroke-width:0.54967189;stroke-linecap:butt;stroke-linejoin:miter;stroke-miterlimit:4"
           inkscape:connector-curvature="0" />
        <path
           id="path6292"
           d="m 68.68118,206.37824 c 0.03757,0.26975 -0.493712,0.98954 -1.18745,1.08572 -0.692944,0.0966 -1.28561,-0.46593 -1.323578,-0.73541 -0.03665,-0.26974 0.494771,-0.56687 1.187847,-0.66344 0.693076,-0.0966 1.28561,0.044 1.323181,0.31327 z"
           style="clip-rule:nonzero;fill:#ffffff;fill-rule:nonzero;stroke:#ffffff;stroke-width:0.27483594;stroke-linecap:butt;stroke-linejoin:miter;stroke-miterlimit:4"
           inkscape:connector-curvature="0" />
        <path
           style="clip-rule:nonzero;fill:none;fill-rule:nonzero;stroke:#ffffff;stroke-width:1.6490289;stroke-linecap:round;stroke-linejoin:round;stroke-miterlimit:4"
           id="path6294"
           d="m 71.159665,204.51148 c 0.114167,2.11587 -0.455745,3.55705 -0.52758,5.80945 -0.106362,3.27396 1.56091,7.02125 -0.951309,10.77317"
           inkscape:connector-curvature="0" />
        <path
           id="path6296"
           d="M 24.768151,196.15064"
           style="clip-rule:nonzero;fill:none;fill-rule:nonzero;stroke:#ffffff;stroke-width:0.39687502;stroke-linecap:round;stroke-linejoin:round;stroke-miterlimit:4"
           inkscape:connector-curvature="0" />
      </g>
      <g
         id="g6419">
        <text
           xml:space="preserve"
           style="font-style:normal;font-variant:normal;font-weight:300;font-stretch:normal;font-size:28.22222137px;line-height:1.25;font-family:'Averia Serif Libre Light';-inkscape-font-specification:'Averia Serif Libre Light, Light';font-variant-ligatures:normal;font-variant-caps:normal;font-variant-numeric:normal;font-feature-settings:normal;text-align:start;letter-spacing:0px;word-spacing:0px;writing-mode:lr-tb;text-anchor:start;fill:#000000;fill-opacity:1;stroke:none;stroke-width:0.52916664"
           x="86.990746"
           y="224.93549"
           id="text6325"><tspan
             sodipodi:role="line"
             id="tspan6323"
             x="86.990746"
             y="224.93549"
             style="font-style:normal;font-variant:normal;font-weight:300;font-stretch:normal;font-size:28.22222137px;font-family:'Averia Serif Libre Light';-inkscape-font-specification:'Averia Serif Libre Light, Light';font-variant-ligatures:normal;font-variant-caps:normal;font-variant-numeric:normal;font-feature-settings:normal;text-align:start;writing-mode:lr-tb;text-anchor:start;fill:#000000;fill-opacity:1;stroke-width:0.52916664">Postgre</tspan></text>
        <text
           id="text6354"
           y="224.93549"
           x="182.87437"
           style="font-style:normal;font-variant:normal;font-weight:300;font-stretch:normal;font-size:28.22222137px;line-height:1.25;font-family:'Averia Serif Libre Light';-inkscape-font-specification:'Averia Serif Libre Light, Light';font-variant-ligatures:normal;font-variant-caps:normal;font-variant-numeric:normal;font-feature-settings:normal;text-align:start;letter-spacing:0px;word-spacing:0px;writing-mode:lr-tb;text-anchor:start;fill:#336791;fill-opacity:1;stroke:none;stroke-width:0.52916664"
           xml:space="preserve"><tspan
             style="font-style:normal;font-variant:normal;font-weight:300;font-stretch:normal;font-size:28.22222137px;font-family:'Averia Serif Libre Light';-inkscape-font-specification:'Averia Serif Libre Light, Light';font-variant-ligatures:normal;font-variant-caps:normal;font-variant-numeric:normal;font-feature-settings:normal;text-align:start;writing-mode:lr-tb;text-anchor:start;fill:#336791;fill-opacity:1;stroke-width:0.52916664"
             y="224.93549"
             x="182.87437"
             id="tspan6352"
             sodipodi:role="line">SQL</tspan></text>
      </g>
    </g>
  </g>
</svg>
